<svg width="1920" height="600" xmlns="http://www.w3.org/2000/svg">

 <g>
  <title>Layer 1</title>
  <path stroke-width="0" id="svg_1" d="m100.45631,328.5904l25.20995,0l7.79007,-21.77241l7.79007,21.77241l25.20994,0l-20.39524,13.45593l7.79047,21.77241l-20.39525,-13.4563l-20.39524,13.4563l7.79047,-21.77241c-6.79842,-4.48531 -13.59683,-8.97062 -20.39525,-13.45593z" fill="#f4d5cb"/>
  <path stroke="#f4d5cb" id="svg_2" d="m1607.85015,218.77223l25.20995,0l7.79007,-21.77241l7.79007,21.77241l25.20994,0l-20.39524,13.45593l7.79047,21.77241l-20.39525,-13.4563l-20.39524,13.4563l7.79047,-21.77241c-6.79842,-4.48531 -13.59683,-8.97062 -20.39525,-13.45593z" fill="#0d2a2e"/>
  <path stroke-width="0" id="svg_6" d="m1773.67181,405.4648l-0.91308,0l0,170.90798l0.91308,0l0,-170.90798z" stroke="#f4d5cb" fill="#f4d5cb"/>
  <path stroke-width="0" transform="rotate(-90, 1773.21, 490.918)" id="svg_7" d="m1773.67181,405.4648l-0.91308,0l0,170.90798l0.91308,0l0,-170.90798z" stroke="#f4d5cb" fill="#f4d5cb"/>
 </g>
</svg>